<svg width="120" height="121" viewBox="0 0 120 121" fill="none" xmlns="http://www.w3.org/2000/svg">
<path d="M31.6656 59.8938C26.3499 55.4866 18.6501 55.4866 13.3344 59.8937V59.8937C6.40778 65.6364 6.40778 76.2615 13.3344 82.0042L53.6175 115.402C57.3192 118.471 62.6809 118.471 66.3825 115.402L106.666 82.0042C113.592 76.2615 113.592 65.6364 106.666 59.8937V59.8937C101.35 55.4866 93.6501 55.4866 88.3344 59.8937L60 83.3851L31.6656 59.8938Z" fill="url(#paint0_linear_101_21)"/>
<path d="M31.6656 7.89375C26.3499 3.48662 18.6501 3.48662 13.3344 7.89375V7.89375C6.40778 13.6364 6.40778 24.2615 13.3344 30.0042L53.6175 63.4019C57.3192 66.4708 62.6809 66.4708 66.3825 63.4018L106.666 30.0042C113.592 24.2615 113.592 13.6364 106.666 7.89375V7.89375C101.35 3.48662 93.6501 3.48662 88.3344 7.89375L60 31.3851L31.6656 7.89375Z" fill="url(#paint1_linear_101_21)"/>
<defs>
<linearGradient id="paint0_linear_101_21" x1="59.5534" y1="130.372" x2="59.5534" y2="72.4669" gradientUnits="userSpaceOnUse">
<stop stop-color="#314755"/>
<stop offset="1" stop-color="#26A0DA"/>
</linearGradient>
<linearGradient id="paint1_linear_101_21" x1="59.5534" y1="78.3719" x2="59.5534" y2="20.4669" gradientUnits="userSpaceOnUse">
<stop stop-color="#314755"/>
<stop offset="1" stop-color="#26A0DA"/>
</linearGradient>
</defs>
</svg>
